{"title":"The Expendables 3 2014 HQ DVDScr NEW SOURCE x264 Pimp4003","uid":10629076,"size":1187743180,"categoryP":"video","categoryS":"movies","magnet":"?xt=urn:btih:1d8c4d3060379c1a6ed45b558fb89b90e1419226&amp;dn=The+Expendables+3+2014+HQ+DVDScr+NEW+SOURCE+x264+Pimp4003&amp;tr=udp%3A%2F%2Ftracker.openbittorrent.com%3A80&amp;tr=udp%3A%2F%2Fopen.demonii.com%3A1337&amp;tr=udp%3A%2F%2Ftracker.coppersurfer.tk%3A6969&amp;tr=udp%3A%2F%2Fexodus.desync.com%3A6969","seeders":2,"leechers":1,"uploader":"shawnmurthy","files":3,"time":1406288222,"description":"[color=red][b]I WAS GONNA USE THE RARBG SOURCE AT FIRST BUT WHEN I DOWNLOADED THAT IT WAS NOT THE BEST AND THE SIZE WAS WAY TOO BIG FOR DVDSCR...SO I WAITED UNTIL SPECTRE SENT IT TO ME...AND THIS SI MUCH BETTER....VIDEO IS MUCH CLEARER AND AUDIO IS MUCH BETTER AND NOT BAD AT ALL....BEST DVDSCR OUT OF THIS MOVIE RIGHT NOW........ENJOY...PIMP4003 OUT[/b][/color]\n\nSOURCE-SPECTRE\n\n[IMG]http://i.imgur.com/Q7K4oJu.png[/IMG]\n\n[IMG]http://i.imgur.com/69uL5sU.jpg[/IMG]\n\n[URL=http://istoreimg.com/i/53d222a9c8cb6.html][IMG]http://istoreimg.com/upload/small/2014/07/25/53d222a9c8c7a.jpg[/IMG][/URL]\n\n[color=blue][size=200][b]SCREENSHOTS, VIDEO INFO, SAMPLE AND FOR EXCLUSIVE RELEASES VISIT BELOW LINK[/b][/size][/color]\n\nThe Expendables 3 2014 HQ DVDScr NEW SOURCE x264 Pimp4003\n\nENJOY\n\nPIMP4003\n\nVideo\nID                                       : 1\nFormat                                   : MPEG-4 Visual\nFormat profile                           : Simple@L3\nFormat settings, BVOP                    : No\nFormat settings, QPel                    : No\nFormat settings, GMC                     : No warppoints\nFormat settings, Matrix                  : Default (H.263)\nCodec ID                                 : 20\nDuration                                 : 2h 6mn\nBit rate                                 : 1 115 Kbps\nWidth                                    : 672 pixels\nHeight                                   : 288 pixels\nDisplay aspect ratio                     : 2.35:1\nFrame rate mode                          : Variable\nFrame rate                               : 23.976 fps\nMinimum frame rate                       : 23.976 fps\nMaximum frame rate                       : 24.000 fps\nColor space                              : YUV\nChroma subsampling                       : 4:2:0\nBit depth                                : 8 bits\nScan type                                : Progressive\nCompression mode                         : Lossy\nBits/(Pixel*Frame)                       : 0.240\nStream size                              : 1 010 MiB (89%)\nWriting library                          : ZJMedia MPEG Encoder\n\nAudio\nID                                       : 2\nFormat                                   : AAC\nFormat/Info                              : Advanced Audio Codec\nFormat profile                           : LC\nCodec ID                                 : 40\nDuration                                 : 2h 6mn\nBit rate mode                            : Variable\nBit rate                                 : 128 Kbps\nChannel(s)                               : 2 channels\nChannel positions                        : Front: L R\nSampling rate                            : 48.0 KHz\nCompression mode                         : Lossy\nStream size                              : 116 MiB (10%)\n","torrent":{"xt":"urn:btih:1d8c4d3060379c1a6ed45b558fb89b90e1419226","amp;dn":"The+Expendables+3+2014+HQ+DVDScr+NEW+SOURCE+x264+Pimp4003","amp;tr":["udp%3A%2F%2Ftracker.openbittorrent.com%3A80","udp%3A%2F%2Fopen.demonii.com%3A1337","udp%3A%2F%2Ftracker.coppersurfer.tk%3A6969","udp%3A%2F%2Fexodus.desync.com%3A6969"],"infoHash":"1d8c4d3060379c1a6ed45b558fb89b90e1419226","infoHashBuffer":{"type":"Buffer","data":[29,140,77,48,96,55,156,26,110,212,91,85,143,184,155,144,225,65,146,38]},"announce":[],"urlList":[]}}